<svg width="585" height="703" viewBox="0 0 585 703" fill="none" xmlns="http://www.w3.org/2000/svg">
<mask id="mask0_1_181" style="mask-type:alpha" maskUnits="userSpaceOnUse" x="0" y="0" width="585" height="703">
<rect width="580.761" height="700.434" rx="20" transform="matrix(0.999996 -0.00288573 0.00435392 0.999991 0.321289 2.56941)" fill="#55B76B"/>
</mask>
<g mask="url(#mask0_1_181)">
<g filter="url(#filter0_d_1_181)">
<path d="M18.3474 362.759C193.664 572.177 14.3543 624.959 14.3543 624.959C14.3543 624.959 -163.268 567.066 18.3474 362.759Z" fill="#43AB5F"/>
</g>
<path d="M18.3474 362.759L14.3542 624.959C14.3542 624.959 193.653 572.177 18.3474 362.759Z" fill="#3C9B61"/>
<g filter="url(#filter1_d_1_181)">
<path d="M193.903 545.483C129.662 689.03 49.7634 618.042 49.7634 618.042C49.7634 618.042 30.6995 516.426 193.903 545.483Z" fill="#71BE63"/>
</g>
<path d="M193.903 545.483L49.7633 618.042C49.7633 618.042 129.662 689.03 193.903 545.483Z" fill="#43AB5F"/>
<g filter="url(#filter2_d_1_181)">
<path d="M97.9241 438.19C160.879 634.549 16.4135 625.101 16.4135 625.101C16.4135 625.101 -93.6461 536.758 97.9241 438.19Z" fill="#ACEF6A"/>
</g>
<path d="M97.9239 438.19L16.4134 625.101C16.4134 625.101 160.878 634.549 97.9239 438.19Z" fill="#94D75B"/>
<g filter="url(#filter3_d_1_181)">
<path d="M198.266 479.17C284.895 637.542 160.01 650.755 160.01 650.755C160.01 650.755 51.2821 591.533 198.266 479.17Z" fill="#94D75B"/>
</g>
<path d="M198.266 479.17L160.01 650.755C160.01 650.755 284.895 637.542 198.266 479.17Z" fill="#71BE63"/>
<g filter="url(#filter4_d_1_181)">
<path d="M139.646 470.496C412.187 479.81 342.478 636.01 342.478 636.01C342.478 636.01 187.144 722.348 139.646 470.496Z" fill="#94D75B"/>
</g>
<path d="M139.646 470.496L342.478 636.01C342.478 636.01 412.187 479.81 139.646 470.496Z" fill="#71BE63"/>
<g filter="url(#filter5_d_1_181)">
<path d="M289.955 473.01C495.661 547.684 398.325 649.723 398.325 649.723C398.325 649.723 255.246 677.168 289.955 473.01Z" fill="#43AB5F"/>
</g>
<path d="M289.955 473.01L398.325 649.723C398.325 649.723 495.651 547.684 289.955 473.01Z" fill="#3C9B61"/>
<g filter="url(#filter6_d_1_181)">
<path d="M367.06 458.048C599.761 552.119 483.317 665.298 483.317 665.298C483.317 665.298 317.795 690.989 367.06 458.048Z" fill="#C0F492"/>
</g>
<path d="M367.06 458.048L483.317 665.298C483.317 665.298 599.762 552.119 367.06 458.048Z" fill="#B0EB81"/>
<g filter="url(#filter7_d_1_181)">
<path d="M393.2 460.921C646.351 469.574 581.604 614.666 581.604 614.666C581.604 614.666 437.319 694.86 393.2 460.921Z" fill="#94D75B"/>
</g>
<path d="M393.2 460.921L581.604 614.666C581.604 614.666 646.362 469.574 393.2 460.921Z" fill="#71BE63"/>
</g>
<defs>
<filter id="filter0_d_1_181" x="-66.4189" y="359.759" width="178.663" height="282.2" filterUnits="userSpaceOnUse" color-interpolation-filters="sRGB">
<feFlood flood-opacity="0" result="BackgroundImageFix"/>
<feColorMatrix in="SourceAlpha" type="matrix" values="0 0 0 0 0 0 0 0 0 0 0 0 0 0 0 0 0 0 127 0" result="hardAlpha"/>
<feOffset dx="7" dy="7"/>
<feGaussianBlur stdDeviation="5"/>
<feColorMatrix type="matrix" values="0 0 0 0 0 0 0 0 0 0 0 0 0 0 0 0 0 0 0.2 0"/>
<feBlend mode="normal" in2="BackgroundImageFix" result="effect1_dropShadow_1_181"/>
<feBlend mode="normal" in="SourceGraphic" in2="effect1_dropShadow_1_181" result="shape"/>
</filter>
<filter id="filter1_d_1_181" x="46.0796" y="537.258" width="164.823" height="115.336" filterUnits="userSpaceOnUse" color-interpolation-filters="sRGB">
<feFlood flood-opacity="0" result="BackgroundImageFix"/>
<feColorMatrix in="SourceAlpha" type="matrix" values="0 0 0 0 0 0 0 0 0 0 0 0 0 0 0 0 0 0 127 0" result="hardAlpha"/>
<feOffset dx="7" dy="7"/>
<feGaussianBlur stdDeviation="5"/>
<feColorMatrix type="matrix" values="0 0 0 0 0 0 0 0 0 0 0 0 0 0 0 0 0 0 0.2 0"/>
<feBlend mode="normal" in2="BackgroundImageFix" result="effect1_dropShadow_1_181"/>
<feBlend mode="normal" in="SourceGraphic" in2="effect1_dropShadow_1_181" result="shape"/>
</filter>
<filter id="filter2_d_1_181" x="-18.0498" y="435.19" width="148.861" height="206.983" filterUnits="userSpaceOnUse" color-interpolation-filters="sRGB">
<feFlood flood-opacity="0" result="BackgroundImageFix"/>
<feColorMatrix in="SourceAlpha" type="matrix" values="0 0 0 0 0 0 0 0 0 0 0 0 0 0 0 0 0 0 127 0" result="hardAlpha"/>
<feOffset dx="7" dy="7"/>
<feGaussianBlur stdDeviation="5"/>
<feColorMatrix type="matrix" values="0 0 0 0 0 0 0 0 0 0 0 0 0 0 0 0 0 0 0.2 0"/>
<feBlend mode="normal" in2="BackgroundImageFix" result="effect1_dropShadow_1_181"/>
<feBlend mode="normal" in="SourceGraphic" in2="effect1_dropShadow_1_181" result="shape"/>
</filter>
<filter id="filter3_d_1_181" x="118.299" y="476.17" width="127.558" height="191.585" filterUnits="userSpaceOnUse" color-interpolation-filters="sRGB">
<feFlood flood-opacity="0" result="BackgroundImageFix"/>
<feColorMatrix in="SourceAlpha" type="matrix" values="0 0 0 0 0 0 0 0 0 0 0 0 0 0 0 0 0 0 127 0" result="hardAlpha"/>
<feOffset dx="7" dy="7"/>
<feGaussianBlur stdDeviation="5"/>
<feColorMatrix type="matrix" values="0 0 0 0 0 0 0 0 0 0 0 0 0 0 0 0 0 0 0.2 0"/>
<feBlend mode="normal" in2="BackgroundImageFix" result="effect1_dropShadow_1_181"/>
<feBlend mode="normal" in="SourceGraphic" in2="effect1_dropShadow_1_181" result="shape"/>
</filter>
<filter id="filter4_d_1_181" x="136.646" y="467.496" width="230.816" height="199.798" filterUnits="userSpaceOnUse" color-interpolation-filters="sRGB">
<feFlood flood-opacity="0" result="BackgroundImageFix"/>
<feColorMatrix in="SourceAlpha" type="matrix" values="0 0 0 0 0 0 0 0 0 0 0 0 0 0 0 0 0 0 127 0" result="hardAlpha"/>
<feOffset dx="7" dy="7"/>
<feGaussianBlur stdDeviation="5"/>
<feColorMatrix type="matrix" values="0 0 0 0 0 0 0 0 0 0 0 0 0 0 0 0 0 0 0.2 0"/>
<feBlend mode="normal" in2="BackgroundImageFix" result="effect1_dropShadow_1_181"/>
<feBlend mode="normal" in="SourceGraphic" in2="effect1_dropShadow_1_181" result="shape"/>
</filter>
<filter id="filter5_d_1_181" x="281.526" y="470.01" width="156.81" height="197.946" filterUnits="userSpaceOnUse" color-interpolation-filters="sRGB">
<feFlood flood-opacity="0" result="BackgroundImageFix"/>
<feColorMatrix in="SourceAlpha" type="matrix" values="0 0 0 0 0 0 0 0 0 0 0 0 0 0 0 0 0 0 127 0" result="hardAlpha"/>
<feOffset dx="7" dy="7"/>
<feGaussianBlur stdDeviation="5"/>
<feColorMatrix type="matrix" values="0 0 0 0 0 0 0 0 0 0 0 0 0 0 0 0 0 0 0.2 0"/>
<feBlend mode="normal" in2="BackgroundImageFix" result="effect1_dropShadow_1_181"/>
<feBlend mode="normal" in="SourceGraphic" in2="effect1_dropShadow_1_181" result="shape"/>
</filter>
<filter id="filter6_d_1_181" x="354.901" y="455.048" width="174.551" height="228.089" filterUnits="userSpaceOnUse" color-interpolation-filters="sRGB">
<feFlood flood-opacity="0" result="BackgroundImageFix"/>
<feColorMatrix in="SourceAlpha" type="matrix" values="0 0 0 0 0 0 0 0 0 0 0 0 0 0 0 0 0 0 127 0" result="hardAlpha"/>
<feOffset dx="7" dy="7"/>
<feGaussianBlur stdDeviation="5"/>
<feColorMatrix type="matrix" values="0 0 0 0 0 0 0 0 0 0 0 0 0 0 0 0 0 0 0.2 0"/>
<feBlend mode="normal" in2="BackgroundImageFix" result="effect1_dropShadow_1_181"/>
<feBlend mode="normal" in="SourceGraphic" in2="effect1_dropShadow_1_181" result="shape"/>
</filter>
<filter id="filter7_d_1_181" x="390.2" y="457.921" width="215.819" height="187.012" filterUnits="userSpaceOnUse" color-interpolation-filters="sRGB">
<feFlood flood-opacity="0" result="BackgroundImageFix"/>
<feColorMatrix in="SourceAlpha" type="matrix" values="0 0 0 0 0 0 0 0 0 0 0 0 0 0 0 0 0 0 127 0" result="hardAlpha"/>
<feOffset dx="7" dy="7"/>
<feGaussianBlur stdDeviation="5"/>
<feColorMatrix type="matrix" values="0 0 0 0 0 0 0 0 0 0 0 0 0 0 0 0 0 0 0.2 0"/>
<feBlend mode="normal" in2="BackgroundImageFix" result="effect1_dropShadow_1_181"/>
<feBlend mode="normal" in="SourceGraphic" in2="effect1_dropShadow_1_181" result="shape"/>
</filter>
</defs>
</svg>
